<?xml version="1.0" standalone="no"?>
<!DOCTYPE svg PUBLIC "-//W3C//DTD SVG 20010904//EN"
 "http://www.w3.org/TR/2001/REC-SVG-20010904/DTD/svg10.dtd">
<svg version="1.0" xmlns="http://www.w3.org/2000/svg"
 width="300.000000pt" height="200.000000pt" viewBox="0 0 300.000000 200.000000"
 preserveAspectRatio="xMidYMid meet">
<metadata>
Created by potrace 1.10, written by Peter Selinger 2001-2011
</metadata>
<g transform="translate(0.000000,200.000000) scale(0.100000,-0.100000)"
fill="#000000" stroke="none">
<path d="M1835 1842 c-90 -42 -145 -119 -148 -207 -1 -25 -2 -45 -2 -45 0 0
-22 7 -48 15 -103 31 -215 28 -334 -10 -21 -7 -23 -4 -23 31 0 46 -37 130 -71
161 -41 37 -110 63 -170 63 -114 0 -202 -55 -259 -162 -30 -56 -34 -72 -34
-138 0 -78 12 -112 59 -175 32 -43 116 -86 170 -88 36 -2 44 -5 39 -17 -3 -8
-10 -39 -16 -67 l-11 -53 -58 0 c-79 0 -86 -18 -8 -22 l62 -3 4 -41 4 -40 -51
-13 c-30 -8 -50 -18 -50 -27 0 -17 2 -17 47 1 50 21 59 19 73 -15 16 -39 88
-104 133 -121 21 -7 37 -16 37 -19 0 -4 -14 -19 -31 -36 -81 -76 -93 -197 -24
-234 20 -11 22 -16 13 -39 -14 -36 -14 -161 1 -189 10 -19 9 -22 -4 -22 -9 0
-29 -13 -45 -29 -25 -24 -38 -29 -106 -34 -92 -7 -129 -28 -129 -73 0 -40 49
-63 152 -71 130 -10 243 17 296 70 16 16 35 22 67 23 25 0 77 4 116 9 65 7 73
6 93 -14 25 -25 61 -27 149 -6 76 18 111 35 149 73 22 23 40 30 85 35 154 15
252 114 251 252 0 37 -10 92 -26 143 -30 92 -34 147 -13 195 18 43 68 90 119
113 49 22 60 34 45 51 -26 32 -134 -5 -190 -64 -39 -41 -68 -111 -68 -165 0
-26 12 -93 26 -148 23 -89 25 -107 14 -148 -17 -68 -69 -118 -142 -136 l-27
-6 0 87 c0 126 -33 239 -100 337 l-29 43 47 35 c36 27 72 75 87 116 0 1 17 -5
37 -13 44 -18 47 -18 47 -2 0 8 -18 19 -39 26 -39 11 -39 12 -38 57 l2 46 53
-6 c41 -5 53 -3 50 6 -3 8 -25 14 -54 16 l-49 3 -15 64 -16 65 46 0 c89 0 172
57 223 154 32 62 31 172 -4 247 -31 65 -82 120 -142 151 -60 30 -168 35 -222
10z m-697 -44 c77 -36 131 -138 118 -221 -4 -21 -3 -37 1 -35 124 63 260 72
395 27 32 -10 59 -19 62 -19 3 0 2 15 -1 34 -14 85 40 187 120 227 32 17 54
20 112 17 63 -3 79 -8 124 -38 163 -110 175 -337 25 -443 -55 -38 -174 -56
-174 -25 0 6 -14 39 -31 75 -29 60 -30 66 -14 83 28 30 -3 36 -33 6 -23 -22
-25 -29 -14 -44 41 -58 83 -167 106 -273 5 -24 3 -27 -34 -33 -46 -7 -90 -26
-90 -38 0 -11 11 -10 60 7 63 22 70 20 70 -20 l0 -36 -60 7 c-40 4 -60 3 -60
-4 0 -6 24 -14 54 -17 45 -6 54 -10 49 -24 -13 -35 -56 -82 -101 -108 -26 -14
-49 -28 -51 -30 -2 -1 8 -12 22 -23 37 -30 105 -171 123 -260 28 -133 0 -251
-72 -306 -35 -27 -139 -64 -180 -64 -21 0 -23 3 -14 19 7 13 7 22 0 26 -6 3
-15 -6 -20 -20 -6 -15 -15 -25 -22 -23 -21 7 -20 26 3 49 18 18 30 21 70 17
57 -6 70 16 17 27 -42 9 -49 21 -41 65 8 44 29 77 54 85 19 6 27 35 10 35 -5
0 -23 -11 -40 -25 -35 -30 -55 -82 -49 -131 2 -19 0 -34 -4 -34 -5 0 -22 -14
-40 -30 -44 -42 -72 -40 -30 3 39 40 57 83 72 174 l12 72 49 16 c48 16 109 63
109 84 0 18 -24 13 -37 -8 -31 -49 -187 -85 -227 -52 -24 20 -19 31 14 31 17
0 30 5 30 10 0 6 -14 10 -31 10 -43 0 -29 15 47 51 62 29 104 71 104 103 0 26
-17 18 -38 -18 -11 -19 -29 -39 -40 -45 -17 -9 -22 -6 -32 20 -28 67 -125 108
-212 90 -65 -14 -84 -25 -134 -73 -23 -22 -46 -39 -50 -38 -5 1 -10 -2 -11 -7
-2 -5 10 -14 27 -20 16 -6 30 -18 30 -27 0 -12 -5 -14 -25 -6 -15 6 -26 6 -30
-1 -4 -5 7 -14 25 -20 25 -9 28 -14 19 -25 -15 -18 -69 -18 -96 1 -32 23 -38
66 -15 118 23 51 87 117 114 117 35 0 13 21 -42 41 -30 10 -70 32 -90 47 -33
28 -84 92 -77 98 2 2 23 6 48 8 54 5 49 21 -6 21 -44 0 -55 8 -55 43 0 26 8
27 57 7 43 -18 56 -19 51 -3 -3 7 -27 20 -55 28 l-51 15 19 75 c19 72 59 166
95 222 18 27 18 28 -6 53 -23 24 -50 33 -50 17 0 -5 9 -17 19 -26 19 -17 19
-19 -9 -63 -16 -25 -32 -58 -35 -74 -17 -78 -180 -28 -240 75 -50 86 -44 191
18 282 73 109 200 146 315 92z m1172 -743 c0 -3 -15 -11 -32 -18 -124 -52
-167 -173 -118 -329 54 -171 24 -280 -93 -339 -35 -18 -137 -42 -145 -34 -2 2
1 13 8 24 7 14 21 21 41 21 60 0 145 63 168 123 17 45 13 129 -10 203 -43 139
-22 237 66 306 34 27 115 57 115 43z m-900 -262 c0 -5 -16 -28 -35 -52 -42
-53 -59 -105 -42 -132 16 -25 3 -34 -35 -23 -29 9 -33 14 -33 46 0 20 -8 44
-18 56 -17 19 -17 20 15 47 53 45 148 82 148 58z m102 -19 c14 -8 37 -28 49
-46 22 -31 22 -32 4 -42 -40 -23 -77 -67 -72 -86 3 -11 -1 -21 -10 -24 -20 -8
-123 -8 -123 0 0 4 11 17 24 29 31 29 54 100 39 123 -8 13 -7 24 4 45 15 30
27 30 85 1z m-107 -81 c-13 -54 -55 -98 -55 -58 0 31 29 85 46 85 13 0 15 -6
9 -27z m-95 -134 c19 -5 71 -8 115 -8 46 1 97 -4 117 -11 34 -12 36 -16 31
-44 -29 -160 -111 -246 -231 -246 -127 0 -202 88 -189 220 8 76 12 84 50 97
32 11 41 10 107 -8z m290 -133 c-14 -67 -57 -135 -101 -160 l-34 -20 42 47
c48 52 67 91 85 180 9 45 14 54 16 34 2 -15 -2 -51 -8 -81z m-405 -156 l29
-30 -41 0 c-36 0 -40 2 -36 20 3 11 1 20 -5 20 -5 0 -12 -9 -15 -20 -6 -25
-37 -27 -37 -2 0 49 62 57 105 12z m-115 -45 c15 -18 107 -20 144 -3 18 8 33
8 48 1 23 -10 22 -10 -12 -31 -51 -32 -133 -45 -242 -40 -67 3 -105 10 -122
21 -52 35 -4 65 105 66 48 1 70 -3 79 -14z"/>
<path d="M1661 1321 c-17 -11 -5 -32 14 -25 7 3 23 -4 34 -15 25 -25 27 -25
35 -6 4 10 -5 22 -27 35 -36 23 -37 23 -56 11z"/>
<path d="M1198 1309 c-10 -5 -18 -19 -18 -29 0 -23 15 -26 27 -6 4 8 19 16 32
18 14 1 26 9 29 16 5 15 -45 16 -70 1z"/>
<path d="M1215 1190 c-21 -24 -24 -72 -5 -94 29 -36 90 -3 90 49 0 24 -34 65
-54 65 -7 0 -21 -9 -31 -20z"/>
<path d="M1645 1190 c-34 -38 -17 -110 26 -110 22 0 49 37 49 67 0 22 -31 63
-48 63 -5 0 -17 -9 -27 -20z"/>
<path d="M1395 1110 c-22 -24 -13 -65 18 -81 30 -16 38 -31 25 -46 -15 -19
-24 -16 -53 14 -24 27 -25 27 -25 6 0 -33 37 -51 103 -51 61 0 97 20 97 53 0
20 -5 19 -34 -10 -27 -27 -56 -24 -56 5 0 10 11 25 25 34 31 21 35 70 6 86
-32 17 -86 12 -106 -10z m90 -14 c19 -14 19 -15 1 -35 -21 -24 -46 -27 -64 -9
-39 39 17 78 63 44z"/>
</g>
</svg>
