<?xml version="1.0" standalone="no"?>
<!DOCTYPE svg PUBLIC "-//W3C//DTD SVG 20010904//EN"
 "http://www.w3.org/TR/2001/REC-SVG-20010904/DTD/svg10.dtd">
<svg version="1.0" xmlns="http://www.w3.org/2000/svg"
 width="375.000000pt" height="250.000000pt" viewBox="0 0 375.000000 250.000000"
 preserveAspectRatio="xMidYMid meet">

<g transform="translate(0.000000,250.000000) scale(0.100000,-0.100000)"
fill="#000000" stroke="none">
<path d="M2293 2301 c-55 -26 -130 -95 -155 -145 -11 -22 -23 -69 -26 -103 -2
-35 -6 -63 -7 -63 -1 0 -37 9 -80 20 -118 30 -237 26 -396 -15 -25 -6 -26 -5
-32 48 -8 76 -57 170 -109 207 -60 44 -136 63 -222 58 -128 -9 -226 -77 -296
-208 -33 -61 -35 -71 -35 -160 0 -84 3 -102 28 -152 16 -32 48 -75 74 -97 47
-42 134 -81 181 -81 48 0 51 -8 33 -92 l-15 -78 -61 -1 c-33 0 -69 -4 -79 -8
-18 -7 -18 -8 5 -14 13 -4 48 -7 77 -7 48 0 52 -2 52 -24 0 -13 3 -37 6 -53 6
-29 4 -31 -32 -38 -46 -8 -94 -32 -94 -45 0 -14 15 -12 57 5 56 24 76 19 97
-20 27 -49 108 -122 161 -146 25 -11 45 -23 45 -26 0 -3 -16 -23 -36 -45 -69
-77 -102 -184 -73 -241 6 -12 24 -33 41 -47 29 -25 29 -27 18 -72 -12 -47 -9
-183 5 -226 6 -16 3 -22 -8 -22 -9 0 -32 -14 -52 -31 -30 -27 -48 -33 -129
-44 -107 -15 -153 -35 -162 -69 -15 -60 29 -91 150 -108 142 -20 315 12 391
72 45 36 44 35 200 48 119 11 120 10 156 -14 43 -30 96 -31 194 -5 95 25 117
35 156 68 19 16 41 34 50 41 9 6 52 18 96 26 139 24 224 82 271 185 35 77 34
162 -7 315 -38 144 -38 177 -5 244 27 54 71 95 140 130 22 11 47 28 54 37 12
15 12 19 -5 32 -41 30 -142 -6 -220 -78 -94 -87 -111 -198 -61 -409 29 -122
29 -156 -4 -220 -30 -59 -93 -107 -161 -123 l-26 -7 -6 123 c-9 175 -46 293
-129 415 -17 24 -26 47 -22 51 5 4 28 22 51 39 36 28 95 103 105 134 3 7 21 5
51 -7 26 -10 50 -15 54 -12 10 11 -17 35 -48 42 -33 7 -49 31 -49 72 0 46 12
55 66 52 72 -6 70 14 -2 25 l-61 9 -11 56 c-7 31 -15 66 -18 79 -6 20 -3 22
38 22 113 0 221 70 283 182 28 49 30 60 30 158 0 95 -3 111 -28 162 -39 80
-107 152 -174 185 -77 37 -216 44 -280 14z m257 -44 c62 -29 130 -100 165
-172 39 -80 42 -192 7 -271 -28 -63 -92 -127 -152 -153 -51 -21 -140 -35 -155
-24 -6 5 -28 48 -49 97 -37 87 -38 91 -21 118 13 23 14 28 2 28 -19 0 -67 -38
-67 -53 0 -6 18 -45 39 -87 38 -73 82 -199 96 -272 7 -35 5 -37 -21 -43 -54
-12 -124 -37 -129 -45 -11 -18 12 -17 70 1 33 10 66 17 73 14 7 -2 12 -21 12
-43 l0 -39 -72 5 c-84 5 -86 -11 -3 -25 32 -5 51 -14 53 -24 5 -26 -56 -98
-116 -136 -31 -20 -59 -37 -61 -39 -2 -2 10 -19 28 -39 39 -45 93 -151 128
-252 21 -64 26 -97 27 -183 1 -100 -1 -109 -32 -173 -24 -48 -45 -75 -73 -94
-51 -34 -161 -73 -205 -73 -32 0 -34 2 -28 25 8 33 -5 32 -32 -2 -18 -23 -25
-26 -35 -16 -10 11 -9 18 8 40 18 25 27 28 87 31 72 3 84 18 30 35 -16 5 -35
14 -41 20 -33 25 1 138 48 163 16 8 29 21 29 29 0 40 -70 -9 -99 -68 -13 -26
-21 -63 -21 -93 0 -47 -2 -51 -50 -89 -28 -22 -55 -41 -60 -43 -17 -6 -11 14
11 34 42 38 71 104 92 210 l22 107 40 13 c76 26 155 82 155 111 0 22 -21 15
-61 -21 -67 -61 -234 -90 -272 -48 -21 23 -13 32 25 32 37 0 36 17 -2 25 -17
4 -28 11 -25 15 3 5 37 26 75 46 81 42 130 92 130 132 l-1 27 -25 -30 c-13
-16 -36 -43 -50 -60 l-26 -30 -19 25 c-52 70 -64 82 -102 101 -103 53 -227 32
-330 -56 -35 -30 -69 -55 -76 -55 -22 0 -11 -18 24 -39 44 -25 47 -46 5 -38
-40 9 -49 -11 -11 -24 56 -20 34 -49 -36 -49 -25 0 -43 8 -64 29 -35 35 -38
76 -9 138 24 53 112 143 140 143 11 0 20 4 20 8 0 9 -8 13 -112 62 -48 22 -81
46 -118 87 -27 32 -49 62 -47 68 2 5 22 13 45 16 72 9 66 26 -13 31 -33 3 -41
8 -49 31 -16 45 3 53 68 28 31 -11 58 -16 61 -11 6 10 -30 31 -87 49 -21 7
-38 17 -38 23 0 51 80 265 127 340 29 48 29 56 -4 90 -44 46 -72 34 -34 -14
l20 -25 -44 -88 c-25 -49 -50 -92 -57 -97 -39 -24 -148 9 -216 67 -70 59 -108
171 -92 271 18 108 103 224 198 267 67 30 180 29 245 -2 97 -47 157 -148 157
-264 0 -52 2 -58 18 -52 131 55 227 71 341 55 45 -6 98 -17 119 -24 20 -7 49
-16 65 -20 l27 -6 0 58 c0 90 25 148 90 214 43 42 67 59 101 66 61 14 165 4
219 -21z m330 -941 c0 -2 -21 -14 -46 -27 -53 -25 -106 -75 -131 -122 -29 -56
-29 -185 1 -301 47 -177 28 -292 -60 -364 -46 -38 -129 -71 -199 -79 l-50 -6
16 23 c9 13 27 27 40 31 13 4 42 12 65 18 47 13 127 78 151 125 25 46 22 171
-7 271 -56 198 -11 334 135 409 45 23 85 33 85 22z m-1120 -323 c0 -4 -21 -39
-47 -77 -44 -63 -48 -73 -48 -128 l1 -60 -35 6 c-40 6 -51 19 -51 62 0 16 -7
39 -15 50 -23 30 -18 49 20 78 64 49 175 92 175 69z m120 -23 c37 -19 90 -76
90 -96 0 -5 -12 -17 -28 -26 -41 -24 -64 -53 -71 -90 -7 -36 -27 -45 -101 -47
-61 -1 -77 10 -49 35 41 37 62 93 56 150 -9 89 25 114 103 74z m-124 -102
c-11 -58 -66 -114 -66 -68 0 32 38 100 56 100 13 0 15 -7 10 -32z m-166 -159
c19 -6 102 -14 183 -19 151 -8 197 -21 197 -55 0 -8 -11 -49 -25 -92 -49 -154
-136 -228 -269 -227 -158 1 -246 103 -233 270 6 88 18 111 60 123 44 13 47 13
87 0z m416 -131 c-12 -102 -74 -214 -138 -249 -27 -15 -22 -5 24 48 48 56 70
102 94 196 9 37 19 67 22 67 2 0 1 -28 -2 -62z m-511 -243 l40 -35 -50 2 c-39
2 -50 7 -50 20 0 29 -14 31 -26 4 -13 -28 -36 -34 -45 -12 -3 8 -1 24 6 35 18
35 77 28 125 -14z m-153 -49 c46 -24 85 -28 161 -15 41 7 82 9 93 5 18 -7 17
-8 -6 -26 -46 -35 -112 -52 -230 -57 -131 -6 -225 8 -254 37 -16 15 -17 22 -7
34 27 33 194 48 243 22z"/>
<path d="M2077 1653 c-15 -14 -6 -33 16 -33 13 0 32 -9 42 -20 10 -11 24 -20
32 -20 24 0 14 29 -20 54 -34 26 -57 32 -70 19z"/>
<path d="M1502 1634 c-12 -8 -22 -24 -22 -35 0 -23 13 -25 29 -5 7 8 26 18 42
21 16 4 29 13 29 21 0 19 -50 18 -78 -2z"/>
<path d="M1521 1484 c-39 -49 -19 -134 31 -134 31 0 68 40 68 74 0 39 -33 86
-60 86 -10 0 -28 -12 -39 -26z"/>
<path d="M2068 1500 c-24 -15 -41 -72 -29 -101 22 -60 71 -61 99 -2 16 33 15
36 -3 71 -21 39 -40 48 -67 32z"/>
<path d="M1750 1390 c-28 -28 -25 -66 6 -95 15 -14 31 -25 35 -25 14 0 10 -37
-5 -49 -11 -10 -22 -5 -51 20 -36 32 -37 32 -33 8 10 -71 221 -80 243 -9 11
33 -1 35 -36 6 -60 -51 -93 -11 -40 50 37 41 40 77 9 98 -33 23 -103 21 -128
-4z m108 -25 c11 -10 11 -17 3 -34 -16 -30 -57 -38 -81 -16 -26 23 -25 40 2
59 23 17 53 13 76 -9z"/>
</g>
</svg>
