<?xml version="1.0" standalone="no"?>
<!DOCTYPE svg PUBLIC "-//W3C//DTD SVG 20010904//EN"
 "http://www.w3.org/TR/2001/REC-SVG-20010904/DTD/svg10.dtd">
<svg version="1.0" xmlns="http://www.w3.org/2000/svg"
 width="1024.000000pt" height="1024.000000pt" viewBox="0 0 1024.000000 1024.000000"
 preserveAspectRatio="xMidYMid meet">

<g transform="translate(0.000000,1024.000000) scale(0.100000,-0.100000)"
fill="#000000" stroke="none">
<path d="M5770 9369 c-260 -32 -472 -138 -666 -333 -55 -55 -118 -128 -139
-161 -141 -215 -213 -469 -202 -711 l5 -111 -56 13 c-162 36 -417 40 -649 8
-286 -38 -572 -148 -810 -309 l-108 -74 -8 42 c-20 99 -60 227 -93 297 -145
307 -420 537 -727 607 -46 10 -120 16 -207 17 -117 0 -148 -3 -233 -27 -219
-60 -370 -149 -532 -312 -360 -361 -500 -891 -365 -1375 114 -403 473 -722
879 -781 144 -20 399 2 511 45 13 5 15 -18 16 -171 0 -98 6 -205 12 -237 14
-71 15 -70 -83 -86 -279 -46 -485 -113 -485 -159 0 -30 23 -31 117 -5 112 31
358 74 427 74 l53 0 37 -112 c21 -62 39 -118 42 -124 3 -6 -32 -25 -83 -44
-170 -64 -300 -138 -389 -222 -41 -38 -54 -58 -54 -79 0 -48 42 -38 140 32 95
68 237 143 348 183 40 14 77 26 82 26 5 0 16 -13 25 -29 8 -17 37 -60 65 -96
27 -36 50 -68 50 -69 0 -2 -15 -7 -33 -10 -41 -8 -66 -34 -101 -103 -22 -44
-31 -53 -54 -53 -44 -1 -110 -36 -132 -72 -30 -50 -27 -128 6 -167 l26 -31
-21 -26 c-43 -55 -13 -140 72 -205 43 -32 139 -71 237 -96 26 -6 52 -30 110
-98 208 -249 446 -416 701 -492 l88 -26 6 -56 c59 -556 270 -999 628 -1319
108 -96 286 -216 417 -279 464 -226 1062 -275 1532 -127 l81 26 126 -16 c655
-83 1337 168 1846 678 378 378 586 782 677 1312 30 175 32 542 5 709 -38 231
-101 440 -185 615 -73 152 -204 362 -481 769 -111 162 -168 266 -215 388 -129
334 -63 641 190 884 92 87 165 140 309 222 134 77 160 97 170 134 34 137 -216
134 -507 -6 -433 -208 -670 -607 -628 -1058 26 -287 114 -499 395 -953 143
-231 257 -442 301 -552 29 -73 86 -293 109 -423 23 -126 31 -379 15 -501 -26
-217 -71 -387 -149 -568 -102 -235 -211 -396 -401 -586 -140 -140 -240 -219
-384 -303 -84 -48 -298 -148 -304 -142 -2 2 24 41 59 87 67 88 179 273 179
297 0 9 7 11 23 6 12 -4 52 -9 88 -12 87 -7 150 20 218 91 94 100 125 191 182
526 47 279 71 378 137 566 28 78 58 176 67 219 30 132 10 231 -52 259 -19 9
-21 16 -16 61 7 67 -20 131 -73 171 -32 25 -47 29 -98 29 -37 0 -74 -6 -93
-16 -31 -16 -32 -16 -59 12 -40 42 -103 63 -161 54 -143 -21 -252 -146 -285
-323 -7 -40 -18 -72 -23 -71 -6 1 -37 15 -70 30 -122 57 -277 58 -409 3 -87
-36 -88 -36 -121 -9 l-30 25 61 62 c159 164 283 372 344 578 15 51 21 58 86
101 174 116 217 240 113 333 -38 35 -40 39 -34 81 14 87 -25 154 -102 174 -38
11 -79 4 -145 -24 -13 -5 -18 -3 -18 8 0 25 -49 75 -80 82 -46 10 -131 -20
-198 -69 -59 -44 -102 -99 -277 -349 -32 -47 -61 -85 -62 -83 -2 2 15 41 36
87 70 149 85 228 86 432 l0 177 70 2 c39 1 158 3 265 3 l195 0 0 30 c0 28 -4
31 -50 42 -90 23 -247 33 -381 27 l-130 -7 -14 34 c-7 19 -28 65 -47 102 l-34
68 95 45 c114 54 301 116 416 138 113 22 130 30 130 61 0 35 -35 41 -145 26
-163 -23 -288 -62 -467 -145 -31 -14 -61 -26 -67 -26 -10 0 -13 12 -70 225
-18 66 -48 157 -68 203 -19 46 -34 84 -32 86 2 1 31 8 64 15 204 44 434 206
564 400 145 215 209 445 198 715 -15 368 -137 674 -356 895 -211 213 -495 315
-781 280z m298 -154 c331 -78 588 -384 679 -808 14 -63 18 -126 17 -272 0
-178 -2 -196 -27 -280 -31 -102 -91 -233 -137 -300 -79 -115 -200 -220 -325
-283 -77 -38 -187 -72 -234 -72 -35 1 -38 4 -101 103 -84 131 -292 344 -428
436 -51 35 -96 70 -99 78 -13 32 18 141 67 241 42 84 66 118 139 195 53 54
116 108 155 132 57 34 66 44 64 65 -3 23 -7 25 -53 25 -69 -1 -134 -35 -217
-113 -133 -126 -236 -316 -260 -481 -16 -109 -3 -132 132 -237 58 -45 146
-124 195 -175 226 -234 343 -451 439 -814 24 -88 46 -167 50 -176 5 -12 -9
-26 -58 -58 -70 -46 -78 -57 -64 -83 12 -25 50 -22 108 7 27 14 53 25 58 25 8
0 72 -127 72 -143 0 -3 -28 -11 -62 -18 -84 -17 -132 -67 -94 -98 9 -8 35 -8
95 0 45 6 84 9 87 7 14 -14 26 -136 21 -218 -7 -115 -34 -215 -91 -336 -118
-250 -279 -412 -590 -596 -52 -31 -58 -54 -19 -69 39 -15 100 3 233 67 334
161 507 316 748 670 71 105 148 186 194 205 27 11 32 10 44 -6 20 -27 17 -49
-16 -125 -34 -78 -37 -105 -13 -114 13 -5 36 13 90 70 40 43 86 86 101 96 36
24 78 23 92 -2 15 -28 -9 -71 -81 -147 -57 -59 -72 -94 -48 -109 7 -4 51 12
99 36 99 48 120 48 120 -3 0 -63 -70 -134 -194 -197 -23 -12 -33 -29 -51 -87
-36 -114 -131 -293 -216 -407 -86 -114 -185 -210 -209 -202 -8 3 -53 21 -100
40 -155 64 -317 93 -457 82 -93 -7 -113 -13 -113 -32 0 -24 43 -41 164 -63
207 -38 372 -99 515 -191 107 -69 107 -68 78 -127 -40 -79 -70 -192 -47 -178
6 3 10 1 10 -4 0 -6 -5 -11 -12 -11 -9 0 -9 -3 -1 -11 20 -20 38 -3 96 94 77
129 140 180 256 207 104 24 236 -5 321 -72 l30 -23 4 -195 c4 -191 21 -346 52
-465 17 -69 28 -85 46 -67 10 10 13 101 13 370 1 324 3 368 23 476 41 218 107
312 215 304 41 -3 42 -4 45 -42 2 -24 -10 -83 -34 -159 -41 -134 -40 -169 7
-175 37 -4 52 20 93 148 44 138 64 175 110 197 29 13 40 14 64 4 31 -13 52
-47 52 -84 0 -13 -27 -79 -60 -147 -36 -74 -59 -135 -58 -150 4 -37 40 -38 67
-3 71 94 107 137 117 140 6 2 14 -10 18 -28 4 -23 -9 -76 -54 -211 -70 -208
-103 -344 -160 -659 -49 -276 -72 -367 -113 -442 -76 -144 -187 -162 -307 -50
-80 74 -92 72 -88 -19 2 -66 -1 -80 -34 -150 -109 -229 -271 -414 -510 -583
-149 -106 -140 -98 -132 -118 14 -36 80 -18 218 60 57 33 107 52 180 68 252
57 505 178 728 346 114 86 308 284 396 404 363 494 483 1084 347 1710 -57 266
-152 474 -400 875 -233 377 -331 599 -371 839 -67 411 140 783 552 989 110 55
284 112 284 93 0 -3 -37 -26 -83 -50 -253 -135 -413 -283 -514 -477 -89 -170
-114 -366 -73 -564 43 -211 128 -382 357 -724 334 -497 433 -688 509 -981 172
-668 23 -1380 -400 -1909 -389 -487 -912 -790 -1486 -862 -119 -15 -295 -18
-371 -8 l-45 6 38 38 c37 36 47 63 29 74 -4 3 -57 -16 -117 -43 -267 -119
-544 -171 -851 -158 -704 30 -1272 362 -1567 917 -109 205 -200 513 -221 747
-5 65 -4 74 14 90 30 25 27 58 -6 72 -16 6 -71 22 -123 35 -165 42 -330 123
-482 237 -36 26 -128 113 -205 193 -121 125 -146 146 -184 155 -155 39 -215
67 -253 118 -29 39 -11 47 80 35 84 -12 114 -4 114 27 0 22 -15 36 -50 46 -68
20 -151 68 -165 95 -18 36 -18 35 1 54 26 26 117 20 214 -14 101 -35 97 -35
109 -11 16 29 -19 66 -100 107 -38 19 -69 39 -69 44 0 13 38 36 73 44 38 9
145 -10 227 -40 38 -15 127 -62 197 -106 163 -101 360 -198 487 -238 120 -37
283 -64 350 -56 53 6 96 28 96 51 0 16 -27 24 -170 49 -198 36 -392 117 -669
281 -106 63 -223 124 -258 137 -53 19 -76 34 -124 85 -59 64 -139 174 -139
192 0 18 56 40 138 54 92 16 102 21 102 47 0 45 -83 52 -216 19 -46 -12 -87
-19 -90 -16 -9 8 -64 175 -64 192 0 12 23 15 133 15 145 0 175 9 163 47 -10
30 -24 33 -181 45 -77 6 -141 12 -143 13 -10 7 -32 232 -32 327 0 291 93 680
224 931 41 77 45 123 21 222 -39 165 -160 343 -298 437 -141 96 -347 130 -479
79 -30 -11 -50 -41 -40 -58 4 -5 52 -13 107 -16 224 -13 381 -90 485 -238 57
-81 86 -152 106 -258 l14 -75 -54 -115 c-91 -192 -142 -339 -173 -502 -21
-108 -28 -115 -159 -155 -80 -25 -104 -27 -244 -27 -127 0 -169 4 -235 22
-469 126 -764 582 -715 1106 30 328 160 600 393 823 135 129 269 206 447 257
89 26 307 27 400 1 230 -63 445 -232 569 -448 74 -131 127 -321 140 -508 8
-122 16 -124 114 -35 39 37 119 98 176 136 296 199 619 302 991 316 249 9 451
-25 682 -114 113 -44 118 -45 143 -29 63 41 2 124 -128 172 -63 23 -79 34 -85
54 -4 14 -6 93 -6 175 1 127 5 165 27 248 50 187 146 357 275 482 164 160 342
251 557 286 67 11 225 2 303 -16z"/>
<path d="M5120 7349 c-39 -16 -60 -40 -60 -68 0 -50 12 -56 73 -41 83 20 175
-6 259 -72 70 -55 102 -14 48 60 -34 47 -103 100 -153 119 -39 14 -133 15
-167 2z"/>
<path d="M3378 7034 c-126 -39 -268 -258 -214 -329 20 -27 43 -12 78 51 50 92
150 173 213 174 29 0 65 28 65 49 0 29 -32 60 -65 66 -16 2 -51 -2 -77 -11z"/>
<path d="M5272 6704 c-118 -59 -157 -219 -89 -367 50 -108 118 -157 222 -157
179 0 269 205 175 397 -67 135 -189 186 -308 127z m178 -139 c7 -8 13 -32 14
-53 1 -33 -2 -37 -23 -37 -34 0 -68 66 -52 101 9 20 14 23 29 15 10 -5 25 -17
32 -26z"/>
<path d="M3464 6361 c-157 -71 -192 -319 -65 -463 88 -101 254 -106 342 -11
52 55 64 91 63 188 0 132 -46 223 -139 276 -61 35 -137 39 -201 10z m181 -136
c14 -13 25 -31 25 -40 0 -17 -34 -55 -50 -55 -22 0 -50 41 -50 73 0 19 3 37 7
40 14 14 45 6 68 -18z"/>
<path d="M4650 6299 c-199 -25 -307 -174 -202 -279 38 -39 116 -70 173 -70 24
0 30 -6 38 -37 16 -57 14 -75 -18 -124 -67 -107 -176 -154 -336 -147 -79 3
-102 8 -152 34 -44 23 -57 35 -55 50 8 46 6 57 -9 67 -25 16 -69 -1 -110 -42
-41 -40 -55 -77 -45 -116 7 -29 50 -44 77 -27 14 9 26 8 53 -5 30 -14 40 -30
78 -117 67 -155 133 -260 223 -352 104 -106 177 -145 287 -152 69 -4 84 -2
132 22 107 53 195 179 236 343 23 87 41 231 34 259 -4 15 6 25 42 43 55 30
134 98 153 135 9 15 23 26 36 26 27 0 45 18 45 46 0 58 -111 127 -147 92 -11
-12 -13 -21 -5 -34 21 -37 -49 -128 -130 -170 -17 -9 -56 -18 -87 -21 -46 -4
-64 0 -101 19 -57 31 -100 107 -99 177 0 44 3 48 47 77 88 58 121 178 67 243
-43 50 -125 72 -225 60z m61 -960 c59 -26 129 -98 129 -133 0 -29 -50 -90 -91
-112 -40 -20 -126 -17 -178 7 -56 25 -119 76 -167 135 -36 43 -36 45 -18 59
36 28 104 57 151 65 62 11 114 4 174 -21z"/>
<path d="M5195 4156 c-56 -21 -113 -85 -121 -135 -5 -30 -16 -47 -45 -70 -33
-27 -45 -31 -102 -31 -83 0 -205 -32 -276 -72 -86 -48 -199 -168 -243 -258
-58 -119 -72 -186 -73 -335 0 -135 9 -175 47 -199 32 -20 42 6 40 101 -7 264
119 503 315 600 64 32 84 37 146 37 l72 1 6 -65 c24 -236 260 -613 580 -926
215 -210 342 -292 464 -301 116 -9 212 68 237 190 24 115 -13 223 -182 532
-76 140 -107 215 -187 450 -78 227 -121 319 -182 387 -73 82 -178 113 -232 69
-22 -18 -24 -18 -69 6 -59 30 -141 38 -195 19z m135 -121 c40 -21 68 -61 139
-202 59 -116 84 -145 111 -128 5 3 10 16 10 28 0 35 -48 203 -69 246 -22 42
-19 51 15 51 66 0 123 -101 224 -400 86 -255 127 -352 219 -520 132 -240 158
-309 146 -386 -8 -58 -59 -114 -103 -114 -86 0 -213 83 -360 234 -213 220
-435 521 -534 723 -44 90 -52 115 -56 179 -5 80 5 106 38 97 33 -9 109 -82
152 -147 54 -81 78 -106 100 -106 36 0 31 32 -18 132 -47 96 -107 174 -162
209 -20 13 -21 18 -12 51 18 62 94 87 160 53z"/>
</g>
</svg>
