<?xml version="1.0" standalone="no"?>
<!DOCTYPE svg PUBLIC "-//W3C//DTD SVG 20010904//EN"
 "http://www.w3.org/TR/2001/REC-SVG-20010904/DTD/svg10.dtd">
<svg version="1.0" xmlns="http://www.w3.org/2000/svg"
 width="1024.000000pt" height="1024.000000pt" viewBox="0 0 1024.000000 1024.000000"
 preserveAspectRatio="xMidYMid meet">

<g transform="translate(0.000000,1024.000000) scale(0.100000,-0.100000)"
fill="#000000" stroke="none">
<path d="M3125 9143 c-79 -11 -230 -59 -321 -103 -331 -160 -565 -473 -650
-870 -25 -116 -25 -343 0 -460 41 -197 132 -371 268 -515 196 -207 436 -319
711 -332 112 -5 127 -8 122 -22 -19 -49 -65 -232 -86 -339 -21 -114 -25 -123
-44 -118 -11 3 -84 13 -161 23 l-142 17 -5 50 c-12 109 -80 231 -159 283 -34
23 -53 28 -104 28 -55 0 -66 -4 -91 -27 -21 -20 -32 -25 -43 -18 -23 15 -108
12 -140 -5 -37 -19 -70 -82 -70 -132 0 -35 -4 -39 -40 -55 -22 -9 -48 -30 -60
-50 -31 -49 -24 -153 17 -240 35 -75 143 -195 228 -253 47 -33 63 -53 122
-159 279 -502 713 -972 1148 -1241 l92 -57 -27 -111 c-46 -186 -61 -294 -67
-467 -6 -175 8 -315 45 -450 l17 -65 -49 -65 c-94 -123 -137 -255 -137 -415 0
-180 52 -316 161 -425 111 -110 315 -200 457 -200 l53 0 -46 -92 c-79 -157
-133 -331 -134 -428 0 -85 16 -111 130 -215 66 -60 131 -61 246 -6 132 64 167
121 274 440 78 235 104 360 97 465 -3 45 -8 89 -12 98 -6 15 0 16 67 11 l73
-5 165 -168 c171 -174 215 -207 313 -235 161 -46 312 66 402 301 l27 72 52 6
c108 12 250 78 339 156 l47 42 63 -17 c88 -22 254 -30 362 -16 273 36 492 141
686 328 187 180 281 356 324 607 20 120 20 355 -2 498 -11 74 -17 173 -17 288
1 207 16 279 91 430 40 79 63 111 138 186 107 107 197 166 371 240 164 70 197
99 175 157 -22 57 -98 69 -254 42 -155 -27 -334 -105 -456 -199 -77 -59 -188
-180 -229 -249 -135 -225 -186 -485 -164 -841 21 -337 14 -453 -38 -601 -75
-215 -271 -399 -512 -481 -98 -33 -204 -48 -290 -40 l-73 7 -1 172 c-1 165 -2
178 -37 307 -19 74 -74 254 -120 400 -47 146 -96 302 -110 346 l-24 81 65 32
c358 177 727 481 1149 948 139 153 166 178 255 233 187 116 278 229 278 344 0
58 -26 110 -63 127 -19 9 -23 18 -23 57 -1 89 -57 151 -144 160 -38 3 -50 9
-58 28 -40 87 -226 60 -336 -49 -43 -44 -106 -151 -106 -181 0 -26 -59 -85
-164 -164 l-99 -75 6 39 c4 21 7 54 7 72 l0 32 53 -6 c44 -5 56 -3 77 15 l25
21 -22 19 c-12 10 -45 21 -72 25 l-51 7 -1 167 c0 92 -3 198 -8 235 l-7 69 30
-6 c100 -21 195 -28 306 -23 274 12 506 109 694 288 104 99 167 183 231 314
222 447 134 1018 -213 1387 -138 147 -326 259 -527 315 -89 25 -116 28 -255
28 -170 0 -244 -15 -375 -74 -259 -118 -485 -375 -580 -660 -28 -85 -55 -215
-55 -266 l0 -33 -113 57 c-470 239 -1022 298 -1540 166 -53 -14 -120 -34 -148
-45 -27 -11 -52 -20 -54 -20 -3 0 -5 47 -5 104 0 370 -184 712 -480 890 -88
54 -240 109 -340 125 -62 10 -242 12 -305 4z m370 -128 c389 -107 669 -521
640 -945 -16 -237 -19 -232 117 -173 125 55 268 98 413 125 175 31 519 32 685
0 268 -50 514 -143 736 -278 40 -24 79 -44 88 -44 31 0 46 41 46 130 0 114 14
196 54 313 46 135 113 242 225 359 198 208 408 298 661 285 242 -13 455 -110
636 -291 165 -166 265 -361 309 -609 23 -130 17 -365 -13 -479 -114 -428 -456
-708 -897 -734 -104 -7 -257 7 -321 29 l-37 12 -28 120 c-35 158 -69 256 -132
388 l-51 108 20 37 c10 20 48 67 83 104 49 52 81 77 140 104 42 20 82 39 90
43 8 4 19 15 25 25 9 14 6 21 -14 38 -76 62 -298 -66 -415 -241 -25 -38 -45
-80 -45 -95 0 -15 22 -73 49 -129 131 -270 196 -552 208 -904 l6 -183 -109 0
c-110 0 -211 -12 -272 -31 -39 -13 -59 -44 -41 -65 10 -12 28 -13 95 -8 46 4
135 7 198 8 97 1 116 -1 116 -14 0 -46 -63 -320 -73 -320 -1 0 -26 9 -55 20
-28 11 -104 34 -167 50 -126 33 -155 30 -155 -14 0 -33 11 -39 125 -75 55 -17
122 -41 149 -54 l49 -22 -61 -76 c-140 -174 -359 -326 -602 -419 -47 -18 -98
-37 -113 -43 -41 -15 -62 -50 -47 -78 11 -19 18 -21 56 -15 120 16 346 118
502 226 114 79 247 204 313 296 l45 60 49 -23 c56 -26 85 -29 103 -11 21 21
13 48 -19 66 -18 9 -43 26 -57 38 -24 20 -25 23 -13 52 16 38 70 90 228 214
136 109 162 139 193 220 38 103 147 198 226 198 45 0 46 -8 12 -51 -42 -52
-52 -131 -19 -149 28 -14 46 -1 66 46 14 34 66 74 98 74 27 0 56 -35 50 -60
-3 -12 -39 -58 -79 -101 -41 -43 -74 -82 -74 -87 0 -4 6 -16 13 -26 19 -25 61
-15 138 35 69 45 93 47 97 6 8 -63 -76 -157 -226 -254 -118 -76 -117 -75 -288
-263 -153 -167 -400 -415 -486 -488 -203 -172 -504 -372 -684 -452 -45 -21
-65 -35 -69 -52 -7 -28 66 -291 172 -613 95 -294 113 -370 119 -530 9 -209
-36 -358 -145 -477 -68 -74 -198 -147 -303 -172 -26 -6 -27 -5 -22 23 9 44
-11 73 -49 69 -30 -3 -31 -5 -62 -109 -58 -197 -124 -307 -209 -348 -57 -28
-82 -26 -157 11 -55 27 -101 69 -329 301 -146 148 -275 287 -287 310 -25 46
-30 109 -10 125 10 9 16 3 26 -24 17 -46 78 -114 102 -114 26 0 35 28 19 54
-28 44 -50 96 -50 119 0 29 14 43 53 52 26 7 27 6 27 -38 0 -89 95 -228 138
-201 26 17 26 40 -1 76 -51 68 -79 148 -52 148 89 0 298 -218 399 -418 18 -36
32 -52 46 -52 26 0 26 28 -1 116 -40 129 -114 250 -208 337 l-51 48 0 68 c0
160 83 305 225 396 159 102 365 89 534 -33 41 -30 66 -32 83 -8 14 21 8 37
-32 79 -134 146 -430 175 -626 62 -164 -95 -277 -265 -291 -438 -5 -55 -9 -67
-21 -62 -83 31 -203 31 -248 -2 -15 -10 -51 -31 -82 -48 -33 -17 -67 -45 -80
-65 -20 -30 -23 -45 -20 -105 4 -84 30 -142 100 -226 27 -33 43 -59 36 -59
-23 0 -152 37 -203 58 -60 24 -141 71 -207 119 -82 60 -137 30 -86 -47 45 -66
192 -159 311 -196 81 -25 92 -47 91 -184 -1 -122 -16 -186 -100 -431 -88 -256
-139 -351 -180 -335 -14 5 -16 16 -10 69 14 114 14 112 -17 115 -24 3 -30 -2
-49 -45 -22 -50 -28 -118 -15 -166 7 -27 6 -28 -25 -25 -52 5 -64 41 -48 140
14 86 10 108 -18 108 -27 0 -37 -15 -60 -90 l-20 -65 -1 46 c-2 84 44 235 114
376 64 128 75 144 143 199 25 20 32 33 30 53 -3 24 -7 26 -43 24 -140 -7 -277
-5 -325 6 -195 46 -359 199 -399 372 -34 144 2 323 91 462 l31 48 23 -22 c27
-25 69 -20 79 10 3 12 -9 64 -29 123 -46 135 -76 311 -76 448 0 184 43 445
105 642 31 98 32 124 3 139 -19 10 -25 8 -50 -20 l-29 -32 -97 67 c-236 162
-538 435 -705 636 -115 140 -257 342 -368 525 -65 108 -107 167 -138 192 -24
20 -77 67 -118 106 -83 78 -136 168 -136 234 0 73 21 79 87 22 56 -49 83 -58
104 -37 14 14 12 23 -26 99 -56 111 -55 157 3 157 24 0 75 -51 75 -74 0 -22
33 -66 49 -66 4 0 16 9 26 20 18 20 17 50 -6 129 -2 8 8 21 22 30 26 14 29 13
64 -13 76 -58 125 -169 125 -282 l0 -63 170 -175 171 -174 -54 -12 c-83 -17
-141 -50 -145 -81 -4 -37 18 -42 107 -25 133 26 171 29 175 14 2 -7 8 -40 15
-73 13 -75 75 -199 140 -286 70 -92 210 -223 312 -291 169 -114 438 -229 537
-231 55 0 77 21 60 59 -9 18 -34 31 -122 60 -141 47 -317 135 -429 215 -212
150 -370 359 -395 521 -10 62 -5 67 58 68 14 0 42 5 63 11 30 8 37 15 37 34 0
35 -31 47 -111 43 -66 -3 -70 -2 -76 20 -9 39 8 234 21 229 112 -41 158 -45
164 -14 6 28 -33 63 -104 94 -52 22 -63 31 -59 48 2 11 11 61 20 110 62 351
223 744 404 985 48 64 52 96 19 173 -54 130 -178 281 -270 328 -48 25 -123 36
-133 20 -15 -25 6 -59 52 -87 99 -58 192 -173 241 -300 l20 -51 -45 -64 c-69
-99 -150 -248 -209 -382 -62 -143 -61 -143 -215 -134 -341 20 -637 216 -793
524 -118 235 -130 546 -31 823 131 362 408 618 760 701 100 23 325 20 420 -6z
m-505 -2705 c36 -5 82 -15 103 -20 37 -11 37 -11 36 -63 -1 -29 -4 -76 -7
-106 l-7 -54 -117 122 c-65 67 -118 126 -118 130 0 9 5 8 110 -9z m5275 -858
c-6 -5 -46 -21 -90 -36 -244 -84 -442 -249 -549 -456 -86 -166 -116 -348 -97
-585 6 -77 18 -196 27 -265 35 -281 -19 -566 -144 -760 -151 -235 -410 -412
-697 -477 -86 -20 -330 -23 -392 -5 l-42 12 34 72 34 71 148 2 c172 2 257 21
391 85 106 50 158 87 249 173 133 127 225 295 258 472 20 104 22 295 6 460
-36 361 31 665 194 882 139 183 368 307 675 362 2 1 0 -3 -5 -7z"/>
<path d="M4010 7179 c-50 -14 -109 -58 -147 -108 -34 -44 -41 -79 -21 -99 20
-20 37 -14 91 37 79 74 107 85 197 78 41 -3 81 -2 89 2 20 13 9 52 -22 75 -31
23 -130 31 -187 15z"/>
<path d="M5642 7090 c-40 -18 -43 -22 -40 -52 l3 -33 85 -5 c99 -6 137 -24
195 -95 42 -52 79 -60 96 -21 26 56 -65 167 -171 207 -64 24 -113 24 -168 -1z"/>
<path d="M3890 6621 c-88 -29 -156 -88 -191 -165 -32 -71 -19 -125 30 -129 24
-1 31 5 94 93 38 51 98 90 142 90 38 0 124 -40 150 -70 11 -12 31 -43 45 -68
19 -35 32 -48 51 -50 87 -10 73 127 -23 214 -78 70 -220 111 -298 85z"/>
<path d="M5594 6490 c-67 -22 -153 -90 -179 -141 -22 -41 -19 -86 5 -99 26
-14 55 1 99 53 40 46 121 87 171 87 42 0 108 -29 134 -58 10 -12 33 -50 51
-84 35 -69 61 -83 96 -52 61 55 -34 233 -153 284 -73 31 -149 35 -224 10z"/>
<path d="M4623 6355 c-37 -16 -53 -42 -53 -86 0 -26 11 -42 61 -88 50 -47 61
-63 66 -97 6 -50 -7 -78 -50 -104 -52 -32 -123 -27 -203 15 -75 39 -86 41
-104 20 -21 -25 -2 -67 55 -120 43 -41 54 -58 60 -95 23 -138 94 -314 156
-385 96 -108 253 -98 360 23 52 60 110 181 144 302 16 57 37 105 50 120 24 25
45 70 45 95 0 7 -8 23 -18 35 l-18 22 -68 -36 c-57 -30 -78 -36 -129 -36 -84
0 -130 15 -168 52 -27 27 -30 37 -25 67 4 28 21 51 81 106 58 55 75 77 75 99
0 73 -61 106 -195 105 -54 0 -103 -5 -122 -14z m335 -635 l42 -19 -20 -50
c-48 -122 -134 -211 -206 -211 -35 0 -86 34 -109 75 -35 58 -34 113 3 147 75
71 205 97 290 58z"/>
</g>
</svg>
